<svg xmlns="http://www.w3.org/2000/svg" viewBox="0 0 24 24" fill="none">
  <circle cx="12" cy="12" r="10" fill="#fff" stroke="#000" stroke-width="1"/>
  <path d="M12 2C6.48 2 2 6.48 2 12s4.48 10 10 10 10-4.48 10-10S17.52 2 12 2zm0 18c-4.41 0-8-3.59-8-8 0-1.48.41-2.86 1.12-4.06h13.76A7.943 7.943 0 0 1 20 12c0 4.41-3.59 8-8 8z" fill="#EE1515"/>
  <path d="M12 2C6.48 2 2 6.48 2 12h10V2z" fill="#EE1515"/>
  <circle cx="12" cy="12" r="3" fill="#fff" stroke="#000" stroke-width="1.5"/>
  <circle cx="12" cy="12" r="1.5" fill="#000"/>
  <path d="M2 12h20" stroke="#000" stroke-width="1.5"/>
</svg>
